# xmcd
# 
# Track frame offsets:
#     150
#     15782
#     32988
#     47300
#     64686
#     79100
#     95251
#     110547
#     126131
#     144720
#     156577
#     178815
#     193430
#     209045
#     225477
#     245556
#     260066
#     273092
#     285273
#     298360
#     318827
#     332730
# 
# Disc length: 4623
# 
# Revision: 2
# Processed by: cddbd v1.5.2PL0 Copyright (c) Steve Scherf et al.
# Submitted via: fre:ac v1.0.17
# 
DISCID=49120d16
DTITLE=張德蘭 - 張德蘭小調情常在 disc2
DYEAR=0
DGENRE=Vocal
TTITLE0=相識也是緣份
TTITLE1=忘不了的您
TTITLE2=幾度夕陽紅
TTITLE3=秋夜
TTITLE4=勁草嬌花
TTITLE5=薔薇之戀
TTITLE6=情義兩心堅
TTITLE7=何日再相見
TTITLE8=默默無言
TTITLE9=武俠帝女花
TTITLE10=神鵰大俠
TTITLE11=人生于世
TTITLE12=風塵淚
TTITLE13=情若無花不結果
TTITLE14=紫水晶
TTITLE15=茫茫路
TTITLE16=雙雙結伴去
TTITLE17=問世間
TTITLE18=愛的短箭
TTITLE19=紫玉墜
TTITLE20=可知道
TTITLE21=台上台下
EXTD=
EXTT0=
EXTT1=
EXTT2=
EXTT3=
EXTT4=
EXTT5=
EXTT6=
EXTT7=
EXTT8=
EXTT9=
EXTT10=
EXTT11=
EXTT12=
EXTT13=
EXTT14=
EXTT15=
EXTT16=
EXTT17=
EXTT18=
EXTT19=
EXTT20=
EXTT21=
PLAYORDER=
